<mxfile host="app.diagrams.net" modified="2023-12-03T13:13:59.422Z" agent="Mozilla/5.0 (X11; Ubuntu; Linux x86_64; rv:120.0) Gecko/20100101 Firefox/120.0" version="22.1.5" etag="mQ7nwJuaf_S_Pl4RLo3-" type="github">
  <diagram name="Page-1" id="MHsgOTr3GB5G5SLrhETi">
    <mxGraphModel>
      <root>
        <mxCell id="0" />
        <mxCell id="1" parent="0" />
      </root>
    </mxGraphModel>
  </diagram>
</mxfile>
